<svg xmlns="http://www.w3.org/2000/svg" xmlns:xlink="http://www.w3.org/1999/xlink" version="1.1" id="Layer_6" x="0px" y="0px" width="100px" height="98.0198019802px" viewBox="0 0 101 99.143" enable-background="new 0 0 101 99.143" xml:space="preserve">
<g>
	<path stroke="#000000" stroke-miterlimit="10" d="M66.393,59.203l1.509-0.093c0,0,1.886-4.715,3.961-9.997   c4.528-11.699,12.545-5.185,12.545-5.185C80.446,55.154,78.46,64.786,77.14,67.05c-1.321,2.264-1.478,7.083-6.611,10.018   c-5.283,3.019-5.394,6.544-5.394,6.544l-0.493,14.856C85.369,92.367,100.5,73.203,100.5,50.5c0-12.813-4.822-24.498-12.747-33.346   L66.925,37.012C66.673,47.453,66.393,59.203,66.393,59.203z"/>
	<path stroke="#000000" stroke-miterlimit="10" d="M30.114,72.159L15.493,86.123c5.7,5.614,12.624,9.87,20.624,12.245   c0-4.927,0-13.848,0-18.411C33.117,77.665,31.404,74.883,30.114,72.159z"/>
	<path stroke="#000000" stroke-miterlimit="10" d="M27.29,60.805c0,0,0.576-26.688,0.486-28.599   c-0.486-10.29,7.922-8.983,7.555-2.881c-0.175,2.903-0.069,15.617-0.069,15.617l0.974-0.363c0,0,0.182-16.614,0.088-23.406   c-0.38-8.141,9.056-8.539,8.4,0.101c-0.271,3.58-0.406,20.192-0.406,20.192l0.943-0.095c0,0,0.357-15.147,0.641-24.487   c-0.289-8.868,10.609-9.434,10.228,0.035c-0.044,1.097-0.396,16.434-0.396,16.434l0.943-0.378c0,0,0.418-9.297,0.418-11.373   c-0.218-8.901,10.447-7.672,10.217-0.396c-0.005,0.158-0.021,0.775-0.044,1.736l13.132-12.521C72.06,4.19,61.71,0.5,50.5,0.5   c-27.614,0-50,22.386-50,50c0,10.356,3.148,19.977,8.541,27.957l18.255-17.405C27.291,60.895,27.29,60.805,27.29,60.805z"/>
	<path fill="none" stroke="#000000" stroke-miterlimit="10" d="M36.016,98.368"/>
	<line fill="none" stroke="#000000" stroke-miterlimit="10" x1="64.632" y1="98.777" x2="64.642" y2="98.468"/>
	<path fill="none" stroke="#000000" stroke-miterlimit="10" d="M87.753,17.155"/>
	<path fill="none" stroke="#000000" stroke-miterlimit="10" d="M80.399,10.421"/>
	<path fill="none" stroke="#000000" stroke-miterlimit="10" d="M9.041,78.458"/>
	<path fill="none" stroke="#000000" stroke-miterlimit="10" d="M15.417,86.123"/>
	<path fill="none" stroke="#000000" stroke-miterlimit="10" d="M27.296,61.052"/>
	<path fill="none" stroke="#000000" stroke-miterlimit="10" d="M67.267,22.942"/>
	<path fill="none" stroke="#000000" stroke-miterlimit="10" d="M66.925,37.012"/>
	<path fill="none" stroke="#000000" stroke-miterlimit="10" d="M30.063,72.159"/>
</g>
</svg>