<svg xmlns="http://www.w3.org/2000/svg" xmlns:xlink="http://www.w3.org/1999/xlink" version="1.1" id="Layer_1" x="0px" y="0px" width="100px" height="100px" viewBox="0 0 100 100" enable-background="new 0 0 100 100" xml:space="preserve">
<g id="NAV_BARS">
</g>
<g id="NAVIGATION">
</g>
<g id="REFERENCCE" display="none">
</g>
<g id="Layer_4">
	<path d="M71.707,69.741c-6.473,0-11.893,3.64-13.432,10.64H39.8c-3.933,0-6.8-3.613-6.8-7.545v-15.15   c2,0.58,2.907,0.695,4.664,0.695h22.15c2.428,3,6.838,6.855,11.893,6.855c7.666,0,13.881-6.16,13.881-13.828   c0-7.666-6.215-13.548-13.881-13.548c-7.434,0-13.482,5.521-13.848,13.521H39.8c-3.933,0-6.8-3.801-6.8-7.732V29.715   c6-1.873,9.213-7.031,9.213-13.117c0-7.668-6.294-13.883-13.961-13.883S14.618,8.93,14.618,16.598   C14.618,22.594,18,27.69,24,29.629v43.919c0,7.861,5.8,13.832,13.664,13.832h20.875c1.834,5,7.031,9.71,13.168,9.71   c7.666,0,13.881-6.008,13.881-13.676C85.588,75.749,79.373,69.741,71.707,69.741z M71.707,45.77c3.145,0,5.693,2.549,5.693,5.695   c0,3.145-2.549,5.693-5.693,5.693c-3.146,0-5.695-2.549-5.695-5.693C66.012,48.318,68.561,45.77,71.707,45.77z M28.172,10.902   c3.146,0,5.695,2.551,5.695,5.695c0,3.146-2.55,5.695-5.695,5.695s-5.695-2.549-5.695-5.695   C22.477,13.453,25.026,10.902,28.172,10.902z M71.707,89.107c-3.146,0-5.695-2.551-5.695-5.697c0-3.145,2.549-5.693,5.695-5.693   c3.145,0,5.693,2.549,5.693,5.693C77.4,86.557,74.852,89.107,71.707,89.107z"/>
</g>
</svg>