<svg xmlns="http://www.w3.org/2000/svg" xmlns:xlink="http://www.w3.org/1999/xlink" version="1.1" id="&#1057;&#1083;&#1086;&#1081;_1" x="0px" y="0px" width="100px" height="100px" viewBox="0 0 100 100" enable-background="new 0 0 100 100" xml:space="preserve">
<path d="M92.5,12.5h-85C6.119,12.5,5,13.619,5,15v70c0,1.381,1.119,2.5,2.5,2.5h85c1.381,0,2.5-1.119,2.5-2.5V15  C95,13.619,93.881,12.5,92.5,12.5z M10,17.5h70v5H10V17.5z M90,82.5H10v-55h80V82.5z M90,22.5h-5v-5h5V22.5z"/>
<path d="M15.732,51.768C16.22,52.256,16.86,52.5,17.5,52.5s1.28-0.244,1.768-0.732l7.5-7.5c0.977-0.976,0.977-2.559,0-3.535  l-7.5-7.5c-0.976-0.977-2.56-0.977-3.535,0c-0.977,0.977-0.977,2.56,0,3.535l5.732,5.732l-5.732,5.732  C14.756,49.209,14.756,50.792,15.732,51.768z"/>
<path d="M30,57.5h10c1.381,0,2.5-1.119,2.5-2.5s-1.119-2.5-2.5-2.5H30c-1.381,0-2.5,1.119-2.5,2.5S28.619,57.5,30,57.5z"/>
</svg>