<svg xmlns="http://www.w3.org/2000/svg" xmlns:xlink="http://www.w3.org/1999/xlink" version="1.1" id="Layer_1" x="0px" y="0px" width="100px" height="100px" viewBox="0 0 100 100" enable-background="new 0 0 100 100" xml:space="preserve">
<g>
	<path d="M91.156,0.003L28,0c-2.631,0-4.209,1.582-4.209,4.213v3.201l54.734,0.001c2.634,0,4.21,1.577,4.21,4.211v74.69h8.422   c2.634,0,4.212-1.577,4.212-4.213V4.213C95.368,1.582,93.79,0.003,91.156,0.003z"/>
	<path d="M72.21,13.686L9.052,13.684c-2.631,0-4.209,1.579-4.209,4.212v77.892c0,2.632,1.578,4.212,4.209,4.212H72.21   c2.633,0,4.211-1.58,4.211-4.212V17.896C76.421,15.264,74.843,13.686,72.21,13.686z M59.578,79.052H21.685v-6.316h37.894V79.052z    M59.578,60.104H21.685V53.79h37.894V60.104z M59.578,41.158H21.685v-6.316h37.894V41.158z"/>
</g>
</svg>