<svg xmlns="http://www.w3.org/2000/svg" xmlns:xlink="http://www.w3.org/1999/xlink" version="1.1" id="Layer_1" x="0px" y="0px" width="100px" height="100px" viewBox="0 0 100 100" style="enable-background:new 0 0 100 100;" xml:space="preserve">
<path d="M86.285,48.21c-0.204-2.931-3.121-5.763-6.066-5.763h-3.044h-8.702c-0.006,0-0.012,0.002-0.018,0.002h-0.534H31.252h-0.433  c-0.007,0-0.012-0.002-0.02-0.002h-8.701h-2.317c-2.946,0-5.862,2.832-6.066,5.763h-0.02v0.324v42.75v0.324h0.02  c0.204,2.931,3.12,5.763,6.066,5.763h2.317h20.108c2.03-0.053,3.666-1.704,3.666-3.752V76.644H42.11  c-3.264,0-5.087-3.998-2.66-6.423l7.527-7.542c1.425-1.414,3.776-1.53,5.318,0l7.528,7.542c2.31,2.306,0.778,6.423-2.659,6.423  h-3.764v16.976c0,2.048,1.633,3.699,3.667,3.752h20.106h3.044c2.945,0,5.862-2.832,6.066-5.763h0.02v-0.324v-42.75V48.21H86.285z"/>
<path d="M32.818,38.879v-8.255c0-11.09,6.094-16.619,17.182-16.619s17.087,5.528,17.087,16.619v8.255h11.354v-7.808  C78.441,13.938,67.135,2.629,50,2.629S21.558,13.938,21.558,31.071v7.808H32.818z"/>
</svg>